<svg id="SvgjsSvg1001" width="288" height="288" xmlns="http://www.w3.org/2000/svg" version="1.1" xmlns:xlink="http://www.w3.org/1999/xlink" xmlns:svgjs="http://svgjs.com/svgjs"><defs id="SvgjsDefs1002"></defs><g id="SvgjsG1008" transform="matrix(1,0,0,1,0,0)"><svg xmlns="http://www.w3.org/2000/svg" width="288" height="288" viewBox="0 0 8.467 8.467"><g color="#000" font-family="sans-serif" transform="translate(0 -288.533)" fill="#87959c" class="color000 svgShape"><path d="M5.023 292.35a.132.132 0 00-.102.216s.203.251.474.538c.272.287.607.61.912.77.185.099.38.098.533.12.229.034.42-.013.541.038.194.082.372.244.49.428.099.156.133.37.168.593.006.044.002.089.003.16l-.563-.555a.132.132 0 00-.186 0l-.631.619a.132.132 0 00-.01.177l.473.59c-.11.012-.24.017-.297.005a1.562 1.562 0 01-.753-.387.91.91 0 01-.244-.442c-.02-.09-.018-.236-.028-.384-.01-.148-.031-.312-.155-.431-.413-.395-.619-.577-.619-.577a.132.132 0 10-.175.199s.2.176.61.569c.038.036.065.13.074.259.01.129.003.28.035.422.048.215.158.42.317.575.242.235.561.388.884.456.128.027.274.013.399-.001.125-.015.226-.034.226-.034a.132.132 0 00.078-.213l-.544-.678.453-.445.702.692a.132.132 0 00.225-.088s.018-.33-.013-.529c-.034-.22-.065-.473-.206-.694a1.378 1.378 0 00-.61-.53c-.232-.098-.454-.034-.605-.056-.178-.026-.338-.033-.449-.091-.241-.128-.578-.441-.842-.72-.264-.278-.461-.521-.461-.521a.132.132 0 00-.104-.05zM2.085 288.834a1.295 1.295 0 00-.399 0c-.125.015-.226.035-.226.035a.132.132 0 00-.078.212l.544.679-.453.444-.702-.692a.132.132 0 00-.226.09s-.017.328.014.527c.034.22.065.474.206.695.144.225.356.422.61.53.232.098.454.033.605.055.099.015.192.013.267.02.075.009.123.024.154.052.153.142.574.621.574.621a.132.132 0 10.2-.174s-.403-.465-.595-.641a.511.511 0 00-.305-.12c-.099-.01-.19-.01-.257-.019-.228-.034-.42.013-.54-.038a1.134 1.134 0 01-.49-.429c-.1-.155-.133-.37-.168-.592-.006-.044-.002-.088-.003-.159l.563.555a.132.132 0 00.186 0l.631-.62a.132.132 0 00.01-.177l-.473-.59c.11-.012.24-.017.296-.006.285.06.578.179.745.377.112.134.124.373.183.623.018.079.01.197.01.325 0 .13.013.285.129.404.434.449 1.16 1.16 1.16 1.16a.132.132 0 10.185-.189s-.726-.712-1.155-1.155c-.041-.042-.054-.11-.055-.22 0-.11.016-.244-.016-.385-.05-.21-.046-.504-.239-.733-.228-.272-.577-.4-.892-.465z" overflow="visible" style="line-height:normal;font-variant-ligatures:normal;font-variant-position:normal;font-variant-caps:normal;font-variant-numeric:normal;font-variant-alternates:normal;font-feature-settings:normal;text-indent:0;text-align:start;text-decoration-line:none;text-decoration-style:solid;text-decoration-color:#000;text-transform:none;text-orientation:mixed;shape-padding:0;isolation:auto;mix-blend-mode:normal" fill="#87959c" class="color000 svgShape"></path><path d="M4.856 292.903a.066.066 0 00-.045.112l.971 1.058a.066.066 0 10.098-.09l-.971-1.058a.066.066 0 00-.053-.022zM2.767 290.882a.066.066 0 00-.047.114l.894.906a.066.066 0 10.095-.093l-.895-.906a.066.066 0 00-.047-.02zM3.668 292.16a.327.327 0 00-.252.042.386.386 0 00-.156.253.468.468 0 00.026.283c.17.384.598.627.86.905a.261.261 0 00.174.078.497.497 0 00.404-.21.375.375 0 00.058-.246.383.383 0 00-.095-.232c-.264-.29-.516-.5-.81-.769a.43.43 0 00-.209-.104zm-.052.26c.03.006.067.025.082.039.3.274.543.477.794.752.01.011.024.042.027.075a.14.14 0 01-.014.076.314.314 0 01-.117.084.148.148 0 01-.052.011c-.008 0-.001 0 .003.005-.3-.319-.697-.574-.81-.831a.236.236 0 01-.01-.124.147.147 0 01.045-.085.095.095 0 01.052-.002z" overflow="visible" style="line-height:normal;font-variant-ligatures:normal;font-variant-position:normal;font-variant-caps:normal;font-variant-numeric:normal;font-variant-alternates:normal;font-feature-settings:normal;text-indent:0;text-align:start;text-decoration-line:none;text-decoration-style:solid;text-decoration-color:#000;text-transform:none;text-orientation:mixed;shape-padding:0;isolation:auto;mix-blend-mode:normal" fill="#87959c" class="color000 svgShape"></path><path d="M6.553 290.139a20.45 20.45 0 0 0-2.424 2.507l.204.166c.75-.92 1.55-1.74 2.394-2.474z" overflow="visible" style="line-height:normal;font-variant-ligatures:normal;font-variant-position:normal;font-variant-caps:normal;font-variant-numeric:normal;font-variant-alternates:normal;font-feature-settings:normal;text-indent:0;text-align:start;text-decoration-line:none;text-decoration-style:solid;text-decoration-color:#000;text-transform:none;text-orientation:mixed;shape-padding:0;isolation:auto;mix-blend-mode:normal" fill="#87959c" class="color000 svgShape"></path><path d="M7.13 289.247a.132.132 0 00-.09.036l-.54.521a.33.33 0 00-.093.216.5.5 0 00.026.203c.044.127.14.226.27.27.117.039.27.049.387-.067.188-.187.534-.546.534-.546a.132.132 0 000-.184l-.398-.41a.132.132 0 00-.095-.04zm-.002.319l.215.222c-.085.088-.288.299-.44.45a.233.233 0 01-.116.004.206.206 0 01-.104-.104.262.262 0 01-.012-.096c.002-.03.01-.045.014-.048l.443-.428zM3.344 292.728l-.433.42.185.19.432-.42zM4.104 293.406l-.433.42.184.19.433-.42z" overflow="visible" style="line-height:normal;font-variant-ligatures:normal;font-variant-position:normal;font-variant-caps:normal;font-variant-numeric:normal;font-variant-alternates:normal;font-feature-settings:normal;text-indent:0;text-align:start;text-decoration-line:none;text-decoration-style:solid;text-decoration-color:#000;text-transform:none;text-orientation:mixed;shape-padding:0;isolation:auto;mix-blend-mode:normal" fill="#87959c" class="color000 svgShape"></path><path d="M2.72 292.866a.132.132 0 0 0-.094.042s-1.472 1.581-2.353 2.365c-.13.115-.139.288-.113.432a1.4 1.4 0 0 0 .142.383c.146.278.407.529.73.605.22.052.49.017.664-.166a79.564 79.564 0 0 1 2.288-2.288.132.132 0 0 0 0-.19l-1.169-1.146a.132.132 0 0 0-.095-.037zm.004.318l.98.96c-.105.102-1.285 1.232-2.2 2.201-.08.084-.274.123-.412.09-.221-.052-.442-.253-.556-.47a1.208 1.208 0 0 1-.116-.308c-.018-.1-.006-.156.028-.187.867-.77 2.165-2.167 2.276-2.286z" overflow="visible" style="line-height:normal;font-variant-ligatures:normal;font-variant-position:normal;font-variant-caps:normal;font-variant-numeric:normal;font-variant-alternates:normal;font-feature-settings:normal;text-indent:0;text-align:start;text-decoration-line:none;text-decoration-style:solid;text-decoration-color:#000;text-transform:none;text-orientation:mixed;shape-padding:0;isolation:auto;mix-blend-mode:normal" fill="#87959c" class="color000 svgShape"></path><path d="M2.418 293.31l-.188.186 1.158 1.174.188-.185zM2.302 294.149a.388.388 0 00-.325.108c-.41.383-.609.627-1.029 1.055-.1.101-.108.233-.084.343a.37.37 0 00.192.255.483.483 0 00.182.054.296.296 0 00.22-.062c.522-.439.766-.65 1.132-1.073a.399.399 0 00.054-.429.435.435 0 00-.342-.251zm-.038.262c.05.007.122.06.138.096.017.04.005.128-.013.15-.356.411-.58.605-1.1 1.043.003-.003-.004.003-.028 0a.251.251 0 01-.083-.025.148.148 0 01-.056-.076.178.178 0 01.015-.102c.426-.433.621-.673 1.021-1.046a.172.172 0 01.106-.04zM5.992 294.35a.066.066 0 00-.059.043l-.103.273a.066.066 0 10.124.047l.103-.273a.066.066 0 00-.065-.09zM6.142 294.477a.066.066 0 00-.06.043l-.19.488a.066.066 0 10.123.048l.19-.488a.066.066 0 00-.063-.09zM6.253 294.726a.066.066 0 00-.06.049l-.162.57a.066.066 0 10.127.036l.161-.57a.066.066 0 00-.066-.085zM6.422 294.94a.066.066 0 00-.06.05l-.146.555a.066.066 0 10.129.033l.144-.554a.066.066 0 00-.067-.083z" overflow="visible" style="line-height:normal;font-variant-ligatures:normal;font-variant-position:normal;font-variant-caps:normal;font-variant-numeric:normal;font-variant-alternates:normal;font-feature-settings:normal;text-indent:0;text-align:start;text-decoration-line:none;text-decoration-style:solid;text-decoration-color:#000;text-transform:none;text-orientation:mixed;shape-padding:0;isolation:auto;mix-blend-mode:normal" fill="#87959c" class="color000 svgShape"></path></g></svg></g></svg>